name 900006 ik
datacolumns 165
datarows 4
range 0.4916633333333341 0.5166633333333340
cursor 1.0 1.0 0.0
keys m_key
wrap
enforce_loops no
enforce_constraints no
calc_derivatives 0.008333
event_color 1.000000 0.000000 1.000000
endheader

time	calcn_r_tx	calcn_r_ty	calcn_r_tz	calcn_r_r1	calcn_r_r2	calcn_r_r3	calcn_l_tx	calcn_l_ty	calcn_l_tz	calcn_l_r1	calcn_l_r2	calcn_l_r3	pelvis_tz	pelvis_tx	pelvis_ty	pelvis_tilt	pelvis_list	pelvis_rotation	hip_flexion_r	hip_adduction_r	hip_rotation_r	knee_angle_r	ankle_angle_r	subtalar_angle_r	mtp_angle_r	hip_flexion_l	hip_adduction_l	hip_rotation_l	knee_angle_l	ankle_angle_l	subtalar_angle_l	mtp_angle_l	lumbar_extension	lumbar_bending	lumbar_rotation	ground_force_px	ground_force_py	ground_force_pz	ground_force_vx	ground_force_vy	ground_force_vz	ground_force_px	ground_force_py	ground_force_pz	ground_force_vx	ground_force_vy	ground_force_vz	ground_torque_x	ground_torque_y	ground_torque_z	ground_torque_x	ground_torque_y	ground_torque_z	 midhip_px	 midhip_py	 midhip_pz	 hip_r_px	 hip_r_py	 hip_r_pz	 hip_l_px	 hip_l_py	 hip_l_pz	 knee_r_px	 knee_r_py	 knee_r_pz	 knee_l_px	 knee_l_py	 knee_l_pz	 ankle_r_px	 ankle_r_py	 ankle_r_pz	 ankle_l_px	 ankle_l_py	 ankle_l_pz	 midasis_px	 midasis_py	 midasis_pz	 asis_r_px	 asis_r_py	 asis_r_pz	 asis_l_px	 asis_l_py	 asis_l_pz	 psis_r_px	 psis_r_py	 psis_r_pz	 psis_l_px	 psis_l_py	 psis_l_pz	 epicondLat_r_px	 epicondLat_r_py	 epicondLat_r_pz	 epicondLat_l_px	 epicondLat_l_py	 epicondLat_l_pz	 epicondMed_r_px	 epicondMed_r_py	 epicondMed_r_pz	 epicondMed_l_px	 epicondMed_l_py	 epicondMed_l_pz	 malleolusLat_r_px	 malleolusLat_r_py	 malleolusLat_r_pz	 malleolusLat_l_px	 malleolusLat_l_py	 malleolusLat_l_pz	 malleolusMedv_r_px	 malleolusMedv_r_py	 malleolusMedv_r_pz	 malleolusMedv_l_px	 malleolusMedv_l_py	 malleolusMedv_l_pz	 sternalnotch_px	 sternalnotch_py	 sternalnotch_pz	 xyphoidprocess_px	 xyphoidprocess_py	 xyphoidprocess_pz	 neck_px	 neck_py	 neck_pz	 toe_r_px	 toe_r_py	 toe_r_pz	 toe_l_px	 toe_l_py	 toe_l_pz	 thighwand_r_px	 thighwand_r_py	 thighwand_r_pz	 thighwand_l_px	 thighwand_l_py	 thighwand_l_pz	 upperleg1_r_px	 upperleg1_r_py	 upperleg1_r_pz	 upperleg1_l_px	 upperleg1_l_py	 upperleg1_l_pz	 upperleg2_r_px	 upperleg2_r_py	 upperleg2_r_pz	 upperleg2_l_px	 upperleg2_l_py	 upperleg2_l_pz	 shankwand_r_px	 shankwand_r_py	 shankwand_r_pz	 shankwand_l_px	 shankwand_l_py	 shankwand_l_pz	 lowerleg1_r_px	 lowerleg1_r_py	 lowerleg1_r_pz	 lowerleg1_l_px	 lowerleg1_l_py	 lowerleg1_l_pz	 subclavicle_r_px	 subclavicle_r_py	 subclavicle_r_pz	 subclavicle_l_px	 subclavicle_l_py	 subclavicle_l_pz	
      0.4916633333333341	     -1.9706428493138746	      0.0587113285127372	      0.3255212484964639	     -1.3738450727498615	     -9.8904080081388432	     -1.7103766315267255	     -2.0990069626275631	      0.0382575122565461	      0.2046981486739812	     -3.8164508597445428	     -4.3555066286913693	     -3.3710911407478266	      0.2517144177502578	     -1.8791545704759387	      0.8276465801042090	      3.1962767495798876	     -1.4575508713627825	     -7.7809887614903115	     17.8683371087218670	      1.5313625577814707	     -0.3412250778547849	    -37.0339608158730510	     14.6179162261114220	     -0.0000000000000000	      0.0000000000000000	     -6.4723288753864416	      4.0837498951721640	     -5.6417479085403714	    -12.0355118692404890	     12.6430165973124940	      0.0000000000000000	      0.0000000000000000	     -4.1066186349278793	      3.3395130826346660	     -3.5480952528283503	     -1.6561846776351958	      0.0000000000000000	      0.3156689530261430	     -0.0000000000043780	      0.0000000000054755	     -0.0000000000003122	     -1.9478031104269149	      0.0000000000000000	      0.2075708352581227	     -1.7866525118265371	    429.5016916717352700	     13.2907462502657640	      0.0000000000000000	     -0.0000000000000586	      0.0000000000000000	      0.0000000000000000	     -0.3993454451232813	      0.0000000000000000	     -1.9141765194522598	      0.7668990348559102	      0.2421361407284342	     -1.9294180663586693	      0.7656606598305757	      0.2974901417118937	     -1.8989344881002828	      0.7681379127189150	      0.1867819458294802	     -1.8521757167234210	      0.4193027142379529	      0.3269274796313810	     -1.9744434681647325	      0.4258032194214878	      0.2004299040445660	     -1.9198260820072164	      0.0817193165098690	      0.3223112656179785	     -2.0517935302407020	      0.0691269711006258	      0.2100501034775198	     -1.8825491455720684	      0.8403410242231107	      0.2518041811452539	     -1.8969575494224253	      0.8444245254076870	      0.3609237332136073	     -1.8681408893688323	      0.8362577871100596	      0.1426849556485295	     -2.0641496340315393	      0.8665705284133498	      0.2622202745082946	     -2.0543298187225290	      0.8625871266568580	      0.2129035268722742	     -1.8346419286037758	      0.4287753370048851	      0.3868105117210127	     -1.9589134187499897	      0.4097477291532616	      0.1413226952187875	     -1.8278502152141347	      0.4217988051866550	      0.2647162422893273	     -1.9656634874800873	      0.4174570900578858	      0.2584982889587308	     -1.9350167595254200	      0.0849378765861009	      0.3564446715580258	     -2.0577773109535387	      0.0693684636147036	      0.1740446384190698	     -1.9102976557627656	      0.0758283580870153	      0.2904249001668569	     -2.0568613262105799	      0.0712750916952198	      0.2433981526297971	     -1.8897943528876660	      1.1924535387561088	      0.2349505875771720	     -1.8777102883245482	      1.0910135698957673	      0.2324889590162404	     -2.0004120610703229	      1.2604372963865456	      0.2211142156515144	     -1.8458231305954085	      0.0667754845137014	      0.3560984698036347	     -1.9653754918279374	      0.0451709136140545	      0.2075062058807819	     -1.7587983906197917	      0.6014123048611615	      0.3618954499647161	     -1.8335117862776906	      0.5513513167003350	      0.1282381720547620	     -1.8264166994454258	      0.6174415002286272	      0.3906214449512639	     -1.8561962973169641	      0.5989296990994961	      0.1930339654514165	     -1.8169634889850350	      0.5595740638045050	      0.3870107122854122	     -1.8708546697537549	      0.5442199708867421	      0.2012897436210480	     -1.7873570084897239	      0.1766088044676465	      0.3801654389184873	     -2.0326027470236472	      0.1643899177928897	      0.0803089663488790	     -1.8586146940855546	      0.1760580085680985	      0.3425734498661089	     -2.0358751137005759	      0.1595280200246762	      0.1612279689173116	     -1.8980265849765139	      1.1915491471605366	      0.2919376957565863	     -1.8771952749293013	      1.1939232314275272	      0.1851010054293444	
      0.4999966666666674	     -1.9528793381674607	      0.0563262861052143	      0.3259726765253524	     -1.0986998073758416	     -9.7552019570125648	     -0.8352736461405588	     -2.0990518495063086	      0.0386258822507150	      0.2049981836973993	     -3.8119060439606711	     -4.2646877481854943	     -3.4583734438936320	      0.2515559809531116	     -1.8745312726572612	      0.8272220462919865	      3.1430912349381437	     -1.5057284208108661	     -7.6075312944101503	     18.3869323903358680	      1.6489287030799178	     -0.5386320096718565	    -35.8442841864624810	     13.7778908318958560	     -0.0000000000000000	      0.0000000000000000	     -6.8141645066505525	      4.0607303907652952	     -5.5878948124192886	    -11.9875813481493690	     12.8929301253976990	      0.0000000000000000	      0.0000000000000000	     -4.1704685614179375	      3.3422682713750360	     -3.4913386823142059	     -1.6540790935732665	      0.0000000000000000	      0.3157169677868925	      0.0000000000101576	     -0.0000000000127041	      0.0000000000007243	     -1.9465693399606008	      0.0000000000000000	      0.2080115714725747	     -0.3186004785538664	    428.4473179415434200	     13.2982060201784180	      0.0000000000000000	      0.0000000000001359	      0.0000000000000000	      0.0000000000000000	     -0.4723675137987037	      0.0000000000000000	     -1.9097474649038297	      0.7665279989114513	      0.2421607236539270	     -1.9248234854796500	      0.7654099710382851	      0.2975625617756784	     -1.8946709202222589	      0.7676463800552925	      0.1867587600669486	     -1.8451464140115816	      0.4198932385742464	      0.3271054030504766	     -1.9729790664325473	      0.4262987470584664	      0.2005387340250737	     -1.9022582656432530	      0.0798297058628736	      0.3226721721815525	     -2.0517429046498785	      0.0693507154911539	      0.2103026711820979	     -1.8780303089678405	      0.8399734511658726	      0.2516155350007862	     -1.8920985652877367	      0.8442656522105626	      0.3606621803956993	     -1.8639620949562963	      0.8356815364224564	      0.1425690781722890	     -2.0595603505448064	      0.8663392853298672	      0.2628932340426263	     -2.0497614006038147	      0.8623957052350324	      0.2133743757879656	     -1.8271023729654416	      0.4293200925897179	      0.3869827707153333	     -1.9570263034481694	      0.4094399620133014	      0.1414402327587166	     -1.8211732894477519	      0.4227423482827856	      0.2645599136159675	     -1.9638124332092670	      0.4176248908163844	      0.2586145643651463	     -1.9174155625552600	      0.0825931411067723	      0.3568609186142459	     -2.0577410416147539	      0.0696169378391005	      0.1742998019527871	     -1.8925518098189613	      0.0742019101479590	      0.2907704314349015	     -2.0565037759708158	      0.0715167870401515	      0.2436427898033725	     -1.8847107079548535	      1.1919615761841320	      0.2348777957791620	     -1.8728542406880595	      1.0904917778212611	      0.2325335896816171	     -1.9953694625220662	      1.2602150125158136	      0.2215485057399253	     -1.8278391636548137	      0.0658577290967860	      0.3561000948003649	     -1.9652794184213831	      0.0452480632664109	      0.2076175292132609	     -1.7529171320862780	      0.6024821526079213	      0.3618095341594315	     -1.8307897534556297	      0.5504237592618295	      0.1281794044073736	     -1.8206398402650417	      0.6180552397349183	      0.3908895539543700	     -1.8527364687986085	      0.5981110365074768	      0.1930817004439367	     -1.8108083696163719	      0.5604010114574890	      0.3871210684616291	     -1.8679398742828652	      0.5435042536479912	      0.2012992445211859	     -1.7725939983676975	      0.1786898356342153	      0.3799698725180001	     -2.0320437289207014	      0.1645262025208273	      0.0806499811368228	     -1.8437123983202046	      0.1761684321715528	      0.3425430652489273	     -2.0350180300096312	      0.1596465214698205	      0.1614193611522294	     -1.8927381404435704	      1.1911641269185722	      0.2919716501864096	     -1.8722874840869359	      1.1933263694549658	      0.1849034614142395	
      0.5083300000000007	     -1.9352119877654927	      0.0544356893709288	      0.3268314105752336	     -0.8592713674512731	     -9.5440100486816437	     -0.2444168508263292	     -2.0990382700077914	      0.0389724012672070	      0.2054089275346861	     -3.8302742365937061	     -4.1457253394502906	     -3.4999975210439502	      0.2509944205689028	     -1.8698857003056579	      0.8268020018586164	      3.0884701610015028	     -1.5717366798080528	     -7.3955740343309895	     18.8945091190734010	      1.7162687633131180	     -0.7397646379783821	    -34.6273232940690720	     12.6353173404650200	     -0.0000000000000000	      0.0000000000000000	     -7.1557767628557194	      4.0435541954301115	     -5.5305095178484933	    -11.9262836721681060	     13.1764109878579740	      0.0000000000000000	      0.0000000000000000	     -4.2393412175036103	      3.3313437833171786	     -3.3883423275761122	     -1.6519849579285784	      0.0000000000000000	      0.3158746790035596	     -0.0000000000235671	      0.0000000000294755	     -0.0000000000016804	     -1.9453470462480911	      0.0000000000000000	      0.2084673732440809	      1.0363177797551362	    427.1927884128066400	     13.3831290438233970	      0.0000000000000000	     -0.0000000000003154	      0.0000000000000000	      0.0000000000000000	     -0.5318764783758064	      0.0000000000000000	     -1.9053377684099626	      0.7661134536478880	      0.2421909150106742	     -1.9202424977409636	      0.7650988300290821	      0.2976410183348736	     -1.8904325164226186	      0.7671282972766502	      0.1867406994034894	     -1.8380599206423647	      0.4203830982028113	      0.3273576572482979	     -1.9715250829628852	      0.4267913718350866	      0.2006284661234828	     -1.8848063611279875	      0.0782249006982376	      0.3230288835566260	     -2.0516608422235589	      0.0695906014908526	      0.2105411821735274	     -1.8735102914205422	      0.8395610495571236	      0.2514538430228858	     -1.8872363729520010	      0.8440278005836854	      0.3604586673136074	     -1.8597840784766715	      0.8350946413191968	      0.1424490028941325	     -2.0549593296123989	      0.8660868056886242	      0.2635743156391933	     -2.0451716301025327	      0.8621864424600545	      0.2138564774078933	     -1.8197066399677317	      0.4298189270770879	      0.3872173846157973	     -1.9551528180412772	      0.4091557454274674	      0.1415481420949522	     -1.8144677973201429	      0.4234944911117713	      0.2646775166477137	     -1.9619578334040895	      0.4178178634214098	      0.2587247286305186	     -1.8999495696007154	      0.0805398652996393	      0.3572577625544623	     -2.0576810071961336	      0.0698837746107224	      0.1745422211366519	     -1.8749270701539706	      0.0728917956015463	      0.2911101442175435	     -2.0560685359539237	      0.0717641444412431	      0.2438716100031370	     -1.8796341122652449	      1.1914690104416139	      0.2348398268664622	     -1.8680126409794164	      1.0899693483953636	      0.2325967183123747	     -1.9903240358533754	      1.2600079812037379	      0.2219816643384169	     -1.8099979631245968	      0.0650456399649151	      0.3561158491778367	     -1.9651681432564883	      0.0453342775432964	      0.2077074759706917	     -1.7470941282408532	      0.6034532292234921	      0.3617258404609907	     -1.8280756874992901	      0.5494707750493123	      0.1280939974775271	     -1.8149768047585100	      0.6186119967114930	      0.3911764828558415	     -1.8492014420180918	      0.5973453737514222	      0.1930401521921209	     -1.8047207925954225	      0.5611937875129254	      0.3873235405576311	     -1.8650205089319927	      0.5426685847236874	      0.2012622077505841	     -1.7581028011180755	      0.1809115524834810	      0.3799015160828217	     -2.0314880030541316	      0.1646915538053694	      0.0810056840404823	     -1.8289919355440003	      0.1764308281529614	      0.3426210476751920	     -2.0341014549889676	      0.1597940720990249	      0.1616033512804423	     -1.8874067809820072	      1.1907748599877868	      0.2919641124876377	     -1.8674325243176337	      1.1927315779808707	      0.1848142848466440	
      0.5166633333333340	     -1.9177958857699984	      0.0524643722612207	      0.3272121317253390	     -0.5483778710258632	     -9.3211659300706859	      0.4887218628449039	     -2.0989490527084214	      0.0393749557866138	      0.2056894179326685	     -3.7773357436651831	     -4.0015647790769817	     -3.6375505127354342	      0.2513956300854723	     -1.8651524811234526	      0.8262462999718696	      3.0167111702210443	     -1.5475275079679571	     -7.2122437281628669	     19.3759456973961330	      1.8122082399642296	     -0.8887742081448685	    -33.4021252167441110	     11.6771456487571200	     -0.0000000000000000	      0.0000000000000000	     -7.4776420880586665	      4.0368643251281187	     -5.5031233860576538	    -11.8603870303907470	     13.3583613207792440	      0.0000000000000000	      0.0000000000000000	     -4.2875614503497648	      3.3287528342482022	     -3.2758060728304246	     -1.6499408630236501	      0.0000000000000000	      0.3161055796686474	      0.0000000000545149	     -0.0000000000681820	      0.0000000000038871	     -1.9441447612325271	      0.0000000000000000	      0.2089426799881745	      2.2968894516867957	    425.9006693902916300	     13.3859928416341830	      0.0000000000000000	      0.0000000000007295	      0.0000000000000000	      0.0000000000000000	     -0.5934007243564884	      0.0000000000000000	     -1.9009303270753020	      0.7656643557066044	      0.2422379623501546	     -1.9156611268554036	      0.7647309447394010	      0.2977359297406402	     -1.8861990449729105	      0.7665978880846587	      0.1867398647960663	     -1.8307425046668846	      0.4207479240272620	      0.3276616824102739	     -1.9699574830875584	      0.4271565001128551	      0.2006978075119344	     -1.8675161548245440	      0.0768981835841629	      0.3233799512900596	     -2.0515382133775337	      0.0698522882738479	      0.2107690045223435	     -1.8689765117103492	      0.8391097633226697	      0.2513341624959222	     -1.8823658826779148	      0.8437105190196326	      0.3603324267886257	     -1.8555868105378457	      0.8345094232904576	      0.1423356878583773	     -2.0503387252568879	      0.8658134211360944	      0.2642760485266124	     -2.0405603690501297	      0.8619608286613217	      0.2143563198433097	     -1.8124586226801789	      0.4302592173911510	      0.3875008170974432	     -1.9532886615611531	      0.4089043669007434	      0.1416474091453152	     -1.8075310248643721	      0.4240893721896347	      0.2649606573860781	     -1.9599213909155844	      0.4179480986228803	      0.2589061617144562	     -1.8826713142076912	      0.0787734147426111	      0.3576307372965957	     -2.0575881126542446	      0.0701745845077281	      0.1747752688870619	     -1.8574814442407748	      0.0718673272003653	      0.2914472208984525	     -2.0555857347946631	      0.0720181920571980	      0.2440898294165601	     -1.8745859670957228	      1.1909671095456940	      0.2348655386047642	     -1.8631969954828895	      1.0894396056440017	      0.2326720882285715	     -1.9852737927157511	      1.2597860681572250	      0.2224415510542524	     -1.7923454364204736	      0.0643673361123593	      0.3561704562668662	     -1.9650478254633204	      0.0454263366795926	      0.2077908312579575	     -1.7413465651341249	      0.6043110219395216	      0.3616515647137098	     -1.8253828290108243	      0.5485035093672148	      0.1279816923152431	     -1.8094432159642453	      0.6190997068445816	      0.3914616034711284	     -1.8456546290989644	      0.5966279249878849	      0.1929221196457086	     -1.7986601414092858	      0.5619301929497019	      0.3875737400567920	     -1.8620729530409252	      0.5417612996506088	      0.2011973339938031	     -1.7439117476357084	      0.1832517168832754	      0.3799803761186458	     -2.0309286199867298	      0.1648859308846812	      0.0813579096622580	     -1.8145143152145486	      0.1768030361218898	      0.3428080740387596	     -2.0331602030013554	      0.1599683430919101	      0.1617919779572820	     -1.8820646150891704	      1.1903507581550301	      0.2919562244495827	     -1.8626421020140251	      1.1921498027063175	      0.1848508013471816	
